# xmcd
#
# Track frame offsets:
# 150
# 10530
# 22457
# 33513
# 48961
# 68835
# 81963
# 92155
# 107783
# 114109
# 124607
# 142705
# 157473
# 169692
# 183428
#
# Disc length: 2626 seconds
#
# Revision: 0
# Processed by: cddbd v1.5.2PL0 Copyright (c) Steve Scherf et al.
# Submitted via: Audion 3.0.2 (http://www.panic.com/audion/)
#
DISCID=c10a400f
DTITLE=AVEG - Christmas Hits
DYEAR=1900
DGENRE=
TTITLE0=a
TTITLE1=b
TTITLE2=c
TTITLE3=d
TTITLE4=e
TTITLE5=f
TTITLE6=g
TTITLE7=h
TTITLE8=i
TTITLE9=j
TTITLE10=k
TTITLE11=l
TTITLE12=m
TTITLE13=n
TTITLE14=o
EXTD=
EXTT0=
EXTT1=
EXTT2=
EXTT3=
EXTT4=
EXTT5=
EXTT6=
EXTT7=
EXTT8=
EXTT9=
EXTT10=
EXTT11=
EXTT12=
EXTT13=
EXTT14=
PLAYORDER=
